# xmcd
#
# Track frame offsets:
#	150
#	12237
#	31070
#	43837
#	58585
#	70637
#	85027
#	98835
#	112680
#	127600
#	145452
#	155330
#	168767
#	183560
#	197672
#	209075
#	223582
#	239317
#	250802
#	264840
#	275247
#	293015
#
# Disc length: 4085 seconds
# Revision: 6
# Processed by: cddbd v1.5.2PL0 Copyright (c) Steve Scherf et al.
# Submitted via: dBpowerAMP V12.0
#
DISCID=310ff316
DTITLE=Various Artist - Contemporary Country The Late 70s Hot Hits
DYEAR=1993
DGENRE=Country
TTITLE0=Loretta Lynn - Out Of My Head and Back In My Bed
TTITLE1=Waylon Jennings - I've Always Been Crazy
TTITLE2=Conway Twitty - I've Already Loved You In My Mind
TTITLE3=Ronnie Milsap - Back On My Mind Again
TTITLE4=Elvis Presley - Way Down
TTITLE5=Johnny Paycheck - I'm The Only Hell Mama Ever Raised
TTITLE6=Johnny Duncan - It Couldn't Have Been Any Better
TTITLE7=Don Williams - I'm Just A Country Boy
TTITLE8=Johnny Cash and Waylon Jennings - There Ain't No Good Chain Gang
TTITLE9=Gene Watson - Paper Rosie
TTITLE10=Charley Pride - Someone Loves You Honey
TTITLE11=Waylon Jennings - Don't You Think This Outlaw Bit's Done Got Out Of Hand
TTITLE12=Merle Haggard - If We're Not Back In Love By Monday
TTITLE13=Moe Bandy - I Cheated Me Right Out Of You
TTITLE14=Kendalls, The - Sweet Desire
TTITLE15=Charlie Rich and Janie Fricke - On My Knees
TTITLE16=Dolly Parton - Heartbreaker
TTITLE17=Dave and Sugar - Golden Tears
TTITLE18=John Conlee - Lady Lay Down
TTITLE19=Freddy Fender - The Rains Came
TTITLE20=Ronnie Milsap - Nobody Likes Sad Songs
TTITLE21=Charley Pride - Where Do I Put Her Memory
EXTD=
EXTT0=
EXTT1=
EXTT2=
EXTT3=
EXTT4=
EXTT5=
EXTT6=
EXTT7=
EXTT8=
EXTT9=
EXTT10=
EXTT11=
EXTT12=
EXTT13=
EXTT14=
EXTT15=
EXTT16=
EXTT17=
EXTT18=
EXTT19=
EXTT20=
EXTT21=
PLAYORDER=
